<?xml version="1.0" encoding="utf-8"?>
<!-- Generator: Adobe Illustrator 18.1.1, SVG Export Plug-In . SVG Version: 6.00 Build 0)  -->
<svg version="1.1" id="Layer_1" xmlns="http://www.w3.org/2000/svg" xmlns:xlink="http://www.w3.org/1999/xlink" x="0px" y="0px"
	 viewBox="0 0 128 192" enable-background="new 0 0 128 192" xml:space="preserve">
<path fill="#296A7F" d="M64,124.1c0,2.1,1.8,3.9,3.9,3.9h56.2c2.1,0,3.9,1.8,3.9,3.9v56.2c0,2.1-1.8,3.9-3.9,3.9H3.9
	c-2.1,0-3.9-1.8-3.9-3.9v-68.3h67.9C65.8,119.8,64,122,64,124.1z"/>
<path fill="#48C2C5" d="M67.9,71.8h6h50.1c2.1,0,3.9,1.8,3.9,3.9v39.8c0,2.1-1.8,3.9-3.9,3.9H72.5h-4.6H0V71.8H67.9z"/>
<path fill="#D9E25F" d="M0,3.9C0,1.8,1.8,0,3.9,0h120.2c2.1,0,3.9,1.8,3.9,3.9v56.2c0,2.1-1.8,3.9-3.9,3.9H67.9
	c-2.1,0-3.9,1.8-3.9,3.9c0,2.1,1.8,3.9,3.9,3.9H0V3.9z"/>
</svg>
