<?xml version="1.0" encoding="utf-8"?>
<!-- Generator: Adobe Illustrator 18.1.1, SVG Export Plug-In . SVG Version: 6.00 Build 0)  -->
<svg version="1.1" id="Layer_1" xmlns="http://www.w3.org/2000/svg" xmlns:xlink="http://www.w3.org/1999/xlink" x="0px" y="0px"
	 viewBox="0 0 128.4 191.9" enable-background="new 0 0 128.4 191.9" xml:space="preserve">
<path fill="#296A7F" d="M64.4,124.1c0,2.1-1.8,3.9-3.9,3.9H4.3c-2.1,0-3.9,1.8-3.9,3.9v56.2c0,2.1,1.8,3.9,3.9,3.9h120.2
	c2.1,0,3.9-1.8,3.9-3.9v-68.3H60.4C62.2,119.8,64.4,122,64.4,124.1z"/>
<path fill="#48C2C5" d="M60.1,71.8h-6H3.9c-2.1,0-3.9,1.8-3.9,3.9v39.8c0,2.1,1.8,3.9,3.9,3.9h51.2h4.6h67.9V71.8H60.1z"/>
<path fill="#D9E25F" d="M128.4,3.9c0-2.1-1.8-3.9-3.9-3.9H4.3C2.1,0,0.4,1.8,0.4,3.9v56.2c0,2.1,1.8,3.9,3.9,3.9h56.2
	c2.1,0,3.9,1.8,3.9,3.9c0,2.1-1.8,3.9-3.9,3.9h67.9V3.9z"/>
</svg>
