<?xml version="1.0" encoding="utf-8"?>
<!-- Generator: Adobe Illustrator 18.1.1, SVG Export Plug-In . SVG Version: 6.00 Build 0)  -->
<svg version="1.1" id="Layer_1" xmlns="http://www.w3.org/2000/svg" xmlns:xlink="http://www.w3.org/1999/xlink" x="0px" y="0px"
	 viewBox="0 0 191.8 191.9" enable-background="new 0 0 191.8 191.9" xml:space="preserve">
<path fill="#D9E25F" d="M186.5,64H5.5C18.7,26.7,54.2,0,96.2,0C137.8,0,173.3,26.7,186.5,64z"/>
<path fill="#296A7F" d="M5.5,128h181c-13.2,37.3-48.7,64-90.7,64C54.2,192,18.7,165.3,5.5,128z"/>
<path fill="#48C2C5" d="M191.8,96c0,8.2-1.1,16.4-3.2,24.2H2.7c-2.1-7.8-2.8-15.6-2.8-24.2c0-8.2,1.1-16.4,2.8-24.2h186
	C191.1,79.6,191.8,87.8,191.8,96z"/>
</svg>
